<svg width="256" height="256" viewBox="0 0 256 256" fill="none" xmlns="http://www.w3.org/2000/svg">
<g clip-path="url(#clip0_1_5)">
<g filter="url(#filter0_di_1_5)">
<rect x="32" y="16" width="192" height="192" rx="24" fill="#18171C"/>
<rect x="31.5" y="15.5" width="193" height="193" rx="24.5" stroke="#15141F"/>
</g>
<path d="M80.4556 44.0141C80.9996 43.338 81.6796 43 82.4615 43C83.2095 43 83.9575 43.3042 84.4675 43.9803L100.175 62.369C100.685 62.9437 100.923 63.5521 100.923 64.262C100.923 65.7493 99.8011 67 98.3391 67C97.6252 67 96.8772 66.7296 96.4352 66.1887L82.4275 49.862L68.4539 66.1887C67.9779 66.7296 67.3319 66.9662 66.5499 66.9662C65.122 66.9662 64 65.7493 64 64.262C64 63.5859 64.238 63.0113 64.748 62.369L80.4556 44.0141Z" fill="#BCB8E0"/>
<path d="M84.6075 153.418H80.7564C80.2751 150.507 77.8453 148.673 74.6361 148.673C70.3037 148.673 67.8968 151.63 67.8968 156.971V159.218C67.8968 164.559 70.3037 167.493 74.6361 167.493C77.8453 167.493 80.2751 165.682 80.7564 162.84H84.6075C83.9885 167.905 80.2063 171 74.7049 171C67.9427 171 64 166.851 64 159.722V156.467C64 149.338 67.9427 145.189 74.7049 145.189C80.2063 145.189 83.9656 148.307 84.6075 153.418Z" fill="#7566FF"/>
<path d="M99.0258 139H102.877V145.739H112.963V149.063H102.923V163.092C102.923 165.797 104.825 167.264 108.332 167.264C109.731 167.264 112.229 167.195 112.894 167.126V170.427C112.275 170.542 109.249 170.656 108.057 170.656C101.891 170.656 99.0258 168.318 99.0258 163.138V149.063H92.4011V145.739H99.0258V139Z" fill="#7566FF"/>
<path d="M131.301 159.401V167.424H139.003V170.542H122.476V167.424H127.496V148.788H121.971V145.67H131.255V152.02H131.759C132.676 147.413 135.771 145.029 140.562 145.029C141.983 145.029 143.335 145.235 144.16 145.579V149.957C143.014 149.544 141.41 149.269 140.057 149.269C134.556 149.269 131.301 153.074 131.301 159.401Z" fill="#7566FF"/>
<path d="M84.6075 153.418H80.7564C80.2751 150.507 77.8453 148.673 74.6361 148.673C70.3037 148.673 67.8968 151.63 67.8968 156.971V159.218C67.8968 164.559 70.3037 167.493 74.6361 167.493C77.8453 167.493 80.2751 165.682 80.7564 162.84H84.6075C83.9885 167.905 80.2063 171 74.7049 171C67.9427 171 64 166.851 64 159.722V156.467C64 149.338 67.9427 145.189 74.7049 145.189C80.2063 145.189 83.9656 148.307 84.6075 153.418Z" stroke="#7566FF" stroke-width="2"/>
<path d="M99.0258 139H102.877V145.739H112.963V149.063H102.923V163.092C102.923 165.797 104.825 167.264 108.332 167.264C109.731 167.264 112.229 167.195 112.894 167.126V170.427C112.275 170.542 109.249 170.656 108.057 170.656C101.891 170.656 99.0258 168.318 99.0258 163.138V149.063H92.4011V145.739H99.0258V139Z" stroke="#7566FF" stroke-width="2"/>
<path d="M131.301 159.401V167.424H139.003V170.542H122.476V167.424H127.496V148.788H121.971V145.67H131.255V152.02H131.759C132.676 147.413 135.771 145.029 140.562 145.029C141.983 145.029 143.335 145.235 144.16 145.579V149.957C143.014 149.544 141.41 149.269 140.057 149.269C134.556 149.269 131.301 153.074 131.301 159.401Z" stroke="#7566FF" stroke-width="2"/>
</g>
<defs>
<filter id="filter0_di_1_5" x="-1" y="-9" width="258" height="258" filterUnits="userSpaceOnUse" color-interpolation-filters="sRGB">
<feFlood flood-opacity="0" result="BackgroundImageFix"/>
<feColorMatrix in="SourceAlpha" type="matrix" values="0 0 0 0 0 0 0 0 0 0 0 0 0 0 0 0 0 0 127 0" result="hardAlpha"/>
<feOffset dy="8"/>
<feGaussianBlur stdDeviation="16"/>
<feComposite in2="hardAlpha" operator="out"/>
<feColorMatrix type="matrix" values="0 0 0 0 0.164706 0 0 0 0 0.137255 0 0 0 0 0.14902 0 0 0 0.5 0"/>
<feBlend mode="normal" in2="BackgroundImageFix" result="effect1_dropShadow_1_5"/>
<feBlend mode="normal" in="SourceGraphic" in2="effect1_dropShadow_1_5" result="shape"/>
<feColorMatrix in="SourceAlpha" type="matrix" values="0 0 0 0 0 0 0 0 0 0 0 0 0 0 0 0 0 0 127 0" result="hardAlpha"/>
<feMorphology radius="5" operator="erode" in="SourceAlpha" result="effect2_innerShadow_1_5"/>
<feOffset dy="-2.5"/>
<feComposite in2="hardAlpha" operator="arithmetic" k2="-1" k3="1"/>
<feColorMatrix type="matrix" values="0 0 0 0 0.368627 0 0 0 0 0.360784 0 0 0 0 0.439216 0 0 0 0.25 0"/>
<feBlend mode="normal" in2="shape" result="effect2_innerShadow_1_5"/>
</filter>
<clipPath id="clip0_1_5">
<rect width="256" height="256" fill="white"/>
</clipPath>
</defs>
</svg>
